<?xml version="1.0" standalone="no"?>
<!DOCTYPE svg PUBLIC "-//W3C//DTD SVG 1.1//EN" "http://www.w3.org/Graphics/SVG/1.1/DTD/svg11.dtd" >
<svg xmlns="http://www.w3.org/2000/svg" xmlns:xlink="http://www.w3.org/1999/xlink" version="1.1">
<metadata>
Created by FontForge 20190801 at Sun Jan 13 01:48:45 2019
 By Unknown
Copyright (c) 2019, KHN
</metadata>
<defs>
<font id="handwritten" horiz-adv-x="375" >
  <font-face 
    font-family="handwritten"
    font-weight="400"
    font-stretch="normal"
    units-per-em="1000"
    panose-1="2 0 5 3 0 0 0 0 0 0"
    ascent="800"
    descent="-200"
    x-height="238"
    cap-height="639"
    bbox="-47.0571 -435.8 13707.1 687.861"
    underline-thickness="50"
    underline-position="-150"
    unicode-range="U+0020-007E"
  />
<missing-glyph horiz-adv-x="364" 
d="M33 0v666h265v-666h-265zM66 33h199v600h-199v-600z" />
    <glyph glyph-name=".notdef" horiz-adv-x="364" 
d="M33 0v666h265v-666h-265zM66 33h199v600h-199v-600z" />
    <glyph glyph-name=".null" horiz-adv-x="0" 
 />
    <glyph glyph-name="nonmarkingreturn" horiz-adv-x="333" 
 />
    <glyph glyph-name="space" unicode=" " horiz-adv-x="700" 
 />
    <glyph glyph-name="exclam" unicode="!" horiz-adv-x="700" 
d="M539 565q16 -57 -29 -135q-30 -54 -101 -166.5t-105 -173.5q-5 -10 -15.5 -10.5t-16.5 7t0 18.5l15 27q-8 -5 -16.5 -1.5t-8.5 15.5q0 5 0.5 39t1 44t1.5 38.5t2.5 43.5t4.5 37.5t6 42.5q12 129 12 188q0 10 9.5 15.5t19.5 2t9 -15.5q0 -23 -1 -52q50 90 123 94
q31 2 55.5 -13t33.5 -45zM504 511q4 38 -16.5 62.5t-57.5 10.5q-86 -33 -114 -197q-1 -17 -2 -30q-1 -21 -2.5 -63t-3.5 -75t-7 -63q45 78 141 230q3 5 14.5 22t16.5 26t13 23.5t12 27.5t6 26zM318 26q12 -11 -2 -25q-2 -2 -14 -15.5t-17 -18t-16.5 -9.5t-23.5 -4
q-7 1 -10.5 7.5t-1.5 13.5q10 32 48 38q6 7 10 11q5 5 13 6t14 -4z" />
    <glyph glyph-name="quotedbl" unicode="&#x22;" horiz-adv-x="700" 
d="M389 572q2 -23 3.5 -69.5t3.5 -69.5q1 -16 -17 -22q-19 -7 -21 10q-2 24 -3.5 70t-3.5 69q-1 16 18 22q19 7 20 -10zM458 434q2 -16 -16 -22q-19 -6 -21 11q-11 91 -15 137q-1 16 18 22q18 4 20 -10q3 -47 14 -138z" />
    <glyph glyph-name="numbersign" unicode="#" horiz-adv-x="700" 
d="M621 278q17 1 17 -15q-1 -16 -17 -20q-2 0 -3 -1q-90 -6 -185 -25q-52 -161 -84 -236q-7 -16 -26 -13q-18 2 -11 19q32 73 80 221q-50 -11 -96 -25q-36 -10 -73 -24q-14 -49 -37 -137q-3 -10 -13 -13.5t-18 2.5t-5 17q21 83 30 115q-18 -7 -24 -10q-80 -34 -130 -38
q-17 -1 -17 14q1 17 17 21h3q9 1 19 3t17 3.5t18.5 5t16.5 5t18.5 7t16.5 6.5t17.5 7.5t16.5 7.5q10 4 22 9q23 78 46 138q2 7 9 25q-114 -23 -167 -37q-12 -3 -18 4t-3 16.5t14 12.5q68 18 191 43q10 24 29.5 65t35 76t27.5 66q6 16 24 13q19 -2 12 -19q-11 -30 -24.5 -61
t-33 -72t-27.5 -60q34 7 55 12q61 12 109 21q39 86 47 130q2 17 22 18q17 2 16 -13v-2q-9 -49 -42 -126q61 12 90 6q19 -3 11 -21q-8 -17 -24 -13q-30 5 -93 -8q-22 -54 -45 -125q-2 -3 -4 -10.5t-3 -8.5q91 18 176 24zM313 223q44 13 91 23q7 21 11 34q23 70 39 109
q-65 -12 -125 -25q-16 -4 -40 -9q-12 -27 -20 -51q-17 -48 -34 -104q35 12 78 23z" />
    <glyph glyph-name="dollar" unicode="$" horiz-adv-x="700" 
d="M440 276q70 -56 70 -114q0 -66 -72 -118q-8 -6 -17 -11q0 -1 1 -9.5t1 -12.5q2 -16 -17 -22t-21 11q0 2 -0.5 7t-0.5 7q-49 -21 -93 -14q3 -26 6 -47q2 -16 -16.5 -22.5t-21.5 10.5q-4 31 -8 69q-40 14 -94 51q-14 10 2 24q15 12 27 3q34 -23 61 -36q-10 114 -11 267
q-35 8 -56 19q-33 16 -40.5 42t8 54.5t34.5 51t41 42.5q6 6 13 12v74q0 10 9.5 15.5t19.5 2t10 -14.5v-48q51 37 98 53q-2 17 -3 30q-2 16 16 22q19 7 21 -10q2 -14 4 -32q42 7 76 -5q17 -6 5.5 -21.5t-26.5 -10.5q-23 8 -53 3q2 -50 -1.5 -140.5t-3.5 -116.5v-43
q18 -11 32 -22zM236 358v139q-45 -41 -57 -77q-8 -27 8 -41t49 -21zM275 528q-1 -162 -1 -178q7 -2 12 -3q47 -13 84 -29v3.5v3.5q0 28 3.5 120t1.5 142q-36 -15 -78 -43q-12 -9 -22 -16zM369 44q5 2 12 5q-10 119 -11 227q-26 14 -56 24q-15 5 -40 11q2 -158 13 -273
q43 -10 82 6zM418 71q22 17 35.5 35t18 41.5t-10.5 46.5q-19 31 -52 57q2 -88 9 -180z" />
    <glyph glyph-name="percent" unicode="%" horiz-adv-x="700" 
d="M297 555q18 -3 20 -22.5t-6 -31.5q-16 -34 -52 -64.5t-68 -22.5q-16 4 -23 14.5t-6 24t5.5 26.5t12.5 25q45 76 82 58q7 -3 8 -10q15 5 27 3zM267 495q8 13 10 20q1 1 1 4q-9 -4 -25 -13q-17 -10 -26 6q-7 -10 -13 -20q-23 -38 -12 -42q14 -6 33 10.5t32 34.5zM536 596
q15 13 28 0q11 -11 -3 -23q-12 -10 -22.5 -21.5t-22.5 -27t-17.5 -23t-20.5 -28.5t-18 -25q-76 -107 -95 -137q-90 -140 -162 -300q-7 -16 -26 -13q-18 2 -10 19q77 172 166 309q14 22 31 46.5t38 54t32 45.5q63 89 102 124zM552 221q10 -12 8.5 -29.5t-8 -32.5t-15.5 -28
q-46 -64 -99 -67q-54 -2 -60 32q-5 28 18 67l1 2q-5 5 -3 12.5t10 12.5q2 1 22 12q35 38 56 27q49 18 70 -8zM516 165q2 7 3.5 11.5t2 11t-2.5 9.5t-11 2q-24 -3 -60 -23q-16 -18 -24 -35q-12 -26 -8 -34q7 -8 17.5 -8t20.5 4q20 8 37 25.5t25 36.5z" />
    <glyph glyph-name="ampersand" unicode="&#x26;" horiz-adv-x="700" 
d="M474 51q5 -9 -2 -18t-16.5 -10t-16.5 8l-4 8q-41 -45 -99 -51t-103 38q-30 32 -35 74.5t11 87t36 80t46 71.5q1 0 2 1.5t1 2.5q-15 66 -9 124q11 112 89 150q35 17 65.5 -3t23.5 -59q-3 -17 -8 -33.5t-14.5 -34.5t-16 -29.5t-21.5 -32t-20.5 -27.5t-24 -30t-21.5 -28
q22 -86 96 -218q2 9 11.5 14t18.5 1.5t8 -14.5q-1 -25 -11 -47q8 -15 14 -25zM325 490q-7 -50 2 -105q61 77 82 123q15 31 16 44q2 21 -9.5 32t-32.5 0q-48 -29 -58 -94zM278 37q36 -22 75.5 -11t62.5 45q-83 146 -110 229q-31 -43 -46 -80q-14 -33 -20 -64t2.5 -65.5
t35.5 -53.5z" />
    <glyph glyph-name="quotesingle" unicode="'" horiz-adv-x="700" 
d="M389 593q9 -18 13 -37t3 -42t-3 -38t-6.5 -43t-6.5 -39q-2 -15 -20 -18q-17 -2 -18 12v4q1 9 7 42.5t8 50.5t0 43t-12 45q-4 9 3 18t16.5 9.5t15.5 -7.5z" />
    <glyph glyph-name="parenleft" unicode="(" horiz-adv-x="700" 
d="M464 -20q16 -6 4.5 -22t-26.5 -10q-107 42 -145 110q-48 89 -37 221q10 112 50 211q44 108 109 138q11 6 19.5 0.5t8.5 -14.5t-11 -15q-58 -27 -96 -132q-36 -102 -41 -186q-9 -133 33 -203q38 -61 132 -98z" />
    <glyph glyph-name="parenright" unicode=")" horiz-adv-x="700" 
d="M316 636q67 -67 100 -163.5t33 -200.5q0 -119 -49 -192q-42 -63 -136 -123q-10 -7 -18.5 -2t-8.5 14t10 17q44 29 75.5 56t50.5 62q42 74 37 178q-10 213 -123 327q-7 8 -2.5 18t14 12.5t17.5 -3.5z" />
    <glyph glyph-name="asterisk" unicode="*" horiz-adv-x="700" 
d="M654 522q11 2 16 -7.5t-1 -17.5q-6 -7 -14 -14t-13.5 -10.5t-17 -11t-15.5 -9.5q-52 -34 -80 -54q-33 -25 -68 -54q22 -156 38 -281q2 -13 -10 -20t-23 1q-58 39 -170 137q-69 -77 -180 -219q-12 -15 -29 -6q-14 7 -3 21q26 33 47 60q1 16 3.5 32t8.5 34.5t9.5 29.5
t12.5 34t12 30q9 22 25 63q-65 53 -105 72q-2 0 -12 4.5t-16 8t-14.5 8.5t-12 11.5t-3.5 12.5q1 11 7.5 18t18 11t21 5.5t23 3t18.5 2.5q85 14 150 27q20 50 33 82q0 1 6.5 18t8.5 22t8.5 19t11.5 20.5t13 15t16 13.5q16 8 29 -3t19 -26.5t8 -30.5q5 -28 13 -93
q134 30 211 41zM377 587q-11 -19 -20.5 -40.5t-20.5 -50.5t-17 -43q35 7 84 19q-3 19 -4 35q-4 44 -6 55q-5 23 -8 29q-2 3 -3 5q0 1 -1 0q-1 -4 -4 -9zM419 361q0 6 -11 77q-48 -11 -78 -18q-5 -1 -14 -2.5t-13 -2.5q-25 -61 -43 -105l-14 -35q18 -15 32 -27q6 -5 19 -16
q23 25 41 44q44 44 82 77v4q0 3 -1 4zM93 376q65 -36 123 -79q17 42 27 68q7 16 18 42q-46 -9 -86 -17q-42 -7 -76 -13q-2 0 -6 -1zM180 97q49 60 90 106q-22 19 -39 34q-16 -40 -27 -71q-3 -8 -8 -22t-9 -25t-7 -22zM455 99q-8 62 -29 214q-27 -25 -54 -52q-22 -22 -50 -52
q86 -75 133 -110zM489 409q38 29 73 52q7 5 25 15q-53 -10 -140 -30q3 -18 3 -21q1 -6 2 -13t2 -15.5t2 -12.5q18 14 33 25z" />
    <glyph glyph-name="plus" unicode="+" horiz-adv-x="700" 
d="M670 354q12 0 16 -9t-2 -17.5t-17 -8.5q-115 3 -265 -12q0 -18 1 -54q2 -76 6 -123q4 -57 -1 -80q-4 -17 -11 -25t-16.5 -7t-19.5 5.5t-21.5 14t-20.5 18t-18.5 18.5t-13.5 13q-75 67 -136.5 110t-132.5 67q-14 5 -6.5 18.5t18.5 15.5q61 6 173 20t159 20q-2 65 -5 114
q-6 89 -17 122q-3 10 5 17t18.5 6t14.5 -11q4 -14 7.5 -28.5t5.5 -32.5t2.5 -28.5t1.5 -33t2 -29.5q2 -40 4 -92q153 15 269 12zM364 289v4.5t-0.5 5t-0.5 4.5q-49 -6 -139 -17.5t-123 -14.5q80 -40 170 -118q49 -42 86 -80q11 -11 15 -14q1 15 1 30q-1 31 -4.5 98t-4.5 102
z" />
    <glyph glyph-name="comma" unicode="," horiz-adv-x="700" 
d="M377 12q22 -29 13 -66t-40 -55q-10 -6 -19 -0.5t-8.5 14t10.5 15.5q18 11 20.5 34t-10.5 38q-7 8 -0.5 16.5t17 10t17.5 -6.5z" />
    <glyph glyph-name="hyphen" unicode="-" horiz-adv-x="700" 
d="M539 368q18 -1 12 -17q-8 -17 -24 -18q-79 5 -222 -2.5t-190 -7.5q-12 0 -15.5 9t2 17.5t16.5 8.5q46 1 193.5 7.5t227.5 2.5z" />
    <glyph glyph-name="period" unicode="." horiz-adv-x="700" 
d="M386 13q5 -5 5 -12q-1 -6 -7 -13q-19 -21 -34 -26q-9 -4 -19 0t-11 14q-2 16 11 29.5t30 10.5q1 -1 3 -1q13 7 22 -2z" />
    <glyph glyph-name="slash" unicode="/" horiz-adv-x="700" 
d="M522 617q3 10 13.5 13t18.5 -2.5t4 -16.5q-16 -53 -67 -140q-40 -66 -82 -157q-27 -57 -140 -312q-6 -15 -25 -13q-18 3 -11 20q118 266 145 323q43 90 75 144q54 90 69 141z" />
    <glyph glyph-name="zero" unicode="0" horiz-adv-x="500" 
d="M419 456q30 -114 -8 -261q-41 -156 -116 -214q-30 -24 -70.5 -23.5t-68.5 28.5q-16 16 -29 36q-3 3 -4 6q-25 42 -38.5 99t-13.5 109t6 103q21 146 91 239q13 17 27 30.5t32 24.5t36.5 6.5t32.5 -25.5q7 -11 -4 -20q103 -41 127 -138zM146 463q-37 -101 -36 -207
q1 -109 31 -179q33 75 100 211q14 29 47.5 107.5t55.5 118.5q-37 41 -121 63q-5 1 -8 4q-20 -23 -41 -62t-28 -56zM385 256q21 141 -12 214l-6 12q-9 -19 -23 -54t-19 -47q-9 -20 -54 -111q-34 -71 -59.5 -125t-48.5 -108q12 -16 26 -28q20 -17 40 -19t37 9t32 29.5t27.5 44
t23 51.5t18 52.5t12 46t6.5 33.5z" />
    <glyph glyph-name="one" unicode="1" horiz-adv-x="500" 
d="M290 630q9 7 20.5 5t11.5 -16q0 -46 -6 -97t-16.5 -115t-15.5 -97q-21 -172 -24 -312q-1 -10 -10.5 -15.5t-19 -2t-9.5 15.5q4 149 27 325q1 12 16 106.5t18 144.5q-8 -11 -21.5 -32t-18.5 -28q0 -1 -4.5 -7.5t-5.5 -7.5t-5 -7t-6 -7.5t-6 -6t-7 -6t-7 -4t-8.5 -4
t-8.5 -2.5q-17 -2 -17 13q1 17 17 22q1 0 3 1q4 0 11.5 9.5t13.5 19.5l13.5 22.5t8.5 13.5q31 50 56 69z" />
    <glyph glyph-name="two" unicode="2" horiz-adv-x="500" 
d="M421 2q17 -6 5.5 -22t-26.5 -10q-152 58 -308 -17q-15 -7 -24 3.5t3 22.5q72 78 161 235q63 112 94 192q1 0 7 16t8 20.5t7.5 20t7 23t5 22t3.5 23.5t-0.5 20.5t-3.5 20.5t-8 17q-29 43 -120 7q-123 -48 -127 -96q-1 -16 -19 -18q-18 -3 -19 11v4q2 20 12.5 38t30 32.5
t34.5 23t37 19.5q108 53 168 29q78 -30 38 -171q-29 -99 -110 -246q-76 -138 -136 -214q142 46 280 -6z" />
    <glyph glyph-name="three" unicode="3" horiz-adv-x="500" 
d="M398 362q23 -32 31 -74t3 -82t-20 -78q-23 -61 -64 -107t-97 -57q-35 -7 -63 1t-49.5 30.5t-36 45t-30.5 56.5q-5 10 2 19t17 9.5t15 -8.5q8 -15 12 -23.5t12.5 -23.5t15 -24t16.5 -20.5t20 -17t21.5 -10t25.5 -3.5t29 6q43 15 74 53.5t46 87.5q41 124 -10 193
q-21 29 -55 43t-68.5 13t-69.5 -9q-15 -4 -21 7t4 21q15 15 43.5 40.5t40.5 37.5q33 33 47 52q1 0 5 5t6.5 8.5t5.5 8t4 9t0 7.5q-3 7 -38 -2t-57 -17q-7 -2 -19.5 -7.5t-30 -13.5t-29.5 -16t-10 -13q6 -15 -12 -25q-17 -10 -23 5q-6 16 0.5 31t24.5 27.5t30 18.5t30 14
q49 21 94 30t61 0q14 -8 17.5 -20.5t-4.5 -29t-19.5 -33t-30.5 -36.5t-34 -34.5t-34 -31.5q118 9 172 -63z" />
    <glyph glyph-name="four" unicode="4" horiz-adv-x="500" 
d="M415 324q12 2 18.5 -5.5t3 -16.5t-14.5 -12q-34 -7 -106 -21q-12 -171 3 -286q2 -16 -17 -22.5t-21 10.5q-15 121 -4 291q-78 -16 -128 -26q-122 -25 -115 31q3 24 16 46t41.5 54.5t32.5 37.5q41 52 93 121q8 10 23 31.5t28 38t26 28.5q11 10 24 3q10 -1 12 -11
q6 -36 6.5 -78.5t-2.5 -73.5t-8 -80.5t-7 -74.5v-2v-2q63 12 96 19zM109 264q5 0 69 14q38 7 102 20q2 24 7 68.5t7 70t4 70t-2 68.5q-9 -11 -24.5 -33t-22.5 -31q-49 -65 -78 -101q-9 -12 -29 -35t-34.5 -42.5t-25.5 -38.5q-14 -24 -8 -28q8 -5 35 -2z" />
    <glyph glyph-name="five" unicode="5" horiz-adv-x="500" 
d="M345 344q50 -44 65 -104.5t-12 -122.5q-27 -58 -80.5 -92.5t-114.5 -22.5q-28 6 -52.5 21.5t-41 32.5t-33 46t-25 48t-22.5 52q-4 10 3.5 19t17 9.5t14.5 -8.5q0 -2 9 -24t11.5 -26.5t11.5 -24.5t14 -27t15 -22t18 -22.5t20 -16t24 -13.5q50 -21 99 0t72 71
q23 47 16.5 99t-44.5 89q-31 29 -68.5 45t-79 12.5t-75.5 -28.5q-9 -8 -20 -5.5t-12 15.5q-1 39 12.5 112.5t12.5 108.5q-14 -2 -19.5 11t9.5 20q10 4 20 7q11 7 20 4q13 1 38 2t33 2q88 7 146 3q18 -1 12 -17q-8 -17 -24 -17q-49 3 -124 -3q-9 -1 -34 -1t-39 -2
q0 -36 -11.5 -102t-12.5 -96q56 29 119.5 20.5t111.5 -52.5z" />
    <glyph glyph-name="six" unicode="6" horiz-adv-x="500" 
d="M467 249q10 -58 -23.5 -116.5t-86.5 -98.5q-33 -26 -69.5 -41.5t-79 -13.5t-72.5 31q-39 38 -54 108q-7 -12 -14 -25q-5 -10 -15.5 -10.5t-16.5 7t0 18.5q21 39 39 68q-8 119 49 232q46 89 117 154q12 11 17.5 16t20 16.5t24.5 16t23 10t25.5 4.5t22.5 -8q9 -7 8 -16
t-10.5 -15t-18.5 -1q-6 4 -13 4t-14.5 -3t-15 -7.5t-16 -11.5t-15.5 -13.5t-15.5 -15l-13.5 -13.5t-11.5 -12.5t-8.5 -9.5q-44 -47 -73 -107.5t-39 -124.5q-3 -19 -4 -38q67 89 144 113q28 10 62.5 7.5t64.5 -13t53 -35t29 -56.5zM365 86q20 21 36.5 48t25.5 57.5t-1 59
t-41 45.5q-140 78 -272 -126q5 -73 38 -118q21 -28 50 -35.5t59 2.5t57 27.5t48 39.5z" />
    <glyph glyph-name="seven" unicode="7" horiz-adv-x="500" 
d="M470 623q11 -3 15 -10t2 -16t-6.5 -17t-10.5 -14q-103 -118 -187 -280q61 10 119 16q17 1 17 -14q-1 -17 -17 -21h-3q-71 -7 -135 -19q-53 -110 -113 -270q-6 -16 -25 -13q-18 2 -11 19q56 151 105 255l-2 -0.5t-3 -0.5q-12 -3 -39.5 -11.5t-48.5 -12t-40 -1.5
q-18 2 -12 19q8 17 25 16q10 -2 22 0.5t27 7.5l21 7q38 9 69 15q64 127 138 225q24 32 45 57q15 19 18 23q4 4 11 7h-1h-4q-17 -1 -50.5 -6.5t-48.5 -6.5q-75 -7 -152 -12q-13 -1 -41 0t-50.5 0t-39.5 -7q-18 -7 -21 10t14 23q19 7 45.5 8.5t48.5 0.5t47 0q103 6 177 15
q9 1 31.5 5.5t33 5t30.5 -2.5z" />
    <glyph glyph-name="eight" unicode="8" horiz-adv-x="500" 
d="M354 334q103 -83 84 -180q-15 -74 -104 -142q-93 -69 -156 -56q-42 9 -61.5 47.5t-17.5 86.5q3 41 16.5 89.5t26.5 81t36 83.5q8 19 19 43q-33 24 -49 50q-43 68 41 142q97 84 167 52q13 -7 7 -19.5t-20 -14.5q0 -3 -2 -5q-74 -142 -97 -190q8 -5 50 -28.5t60 -39.5z
M179 462q13 -20 36 -39q26 53 93 181q-41 0 -93 -48q-10 -9 -16.5 -15.5t-14 -17t-10.5 -19.5t-2.5 -20t7.5 -22zM395 138q19 55 -9.5 102.5t-84.5 84.5q-13 9 -41 24.5t-32 18.5q-14 -30 -24 -53q-4 -9 -11 -25.5t-11 -26.5l-11 -27.5t-10.5 -28t-9.5 -28t-7.5 -28.5
t-5 -28.5t-2 -28t1.5 -27.5q10 -71 53 -76q34 -5 76 19q103 56 128 128z" />
    <glyph glyph-name="nine" unicode="9" horiz-adv-x="500" 
d="M356 575q12 -42 -5 -92q-3 -47 -12 -125.5t-14 -131t-4 -122t13 -128.5q2 -10 -6.5 -17.5t-18.5 -6.5t-13 12q-8 42 -11.5 84.5t-1 95t4 80.5t9 95.5t9.5 84.5q-35 -44 -78 -69q-34 -20 -71.5 -22.5t-66.5 18.5t-34 63q-6 54 23.5 111.5t75.5 92.5q66 52 134 51
q29 -1 50 -15.5t24 -42.5q1 -9 -7 -16zM238 384q55 50 75 102q3 50 2 91q-1 9 7 14q-9 21 -40 22.5t-50 -8.5q-55 -21 -91 -68q-57 -77 -46 -138q4 -28 21.5 -41t39 -11t43.5 12t39 25z" />
    <glyph glyph-name="colon" unicode=":" horiz-adv-x="700" 
d="M366 554q6 -5 5 -12.5t-7 -12.5q-28 -24 -49 -27q-6 -1 -11.5 2.5t-6.5 8.5q-1 22 12 34q16 16 35 11q1 -1 3 -2q12 5 19 -2zM377 44q6 -3 7.5 -10.5t-2.5 -13.5q-22 -35 -49 -33q-11 1 -16.5 10.5t-1.5 19.5q10 21 33 23q2 0 5 -1q11 11 24 5z" />
    <glyph glyph-name="semicolon" unicode=";" horiz-adv-x="700" 
d="M375 562q7 -13 -9 -25q-28 -20 -52 -18q-6 0 -9.5 5t-3.5 11q1 18 15 29q19 14 34 5l2 -1q5 3 12.5 1t10.5 -7zM376 11q20 -37 16 -60q-6 -35 -42 -46q-12 -3 -18.5 4t-3 16.5t14.5 12.5q23 7 -2 53q-4 9 2.5 18t16.5 10t16 -8z" />
    <glyph glyph-name="less" unicode="&#x3c;" horiz-adv-x="700" 
d="M520 140q9 -7 8 -16t-11 -15t-19 -1q-26 15 -76 49.5t-77 49.5q-15 9 -30.5 16.5t-37 16t-31 12t-38 13.5t-32.5 11q-7 3 -8.5 11t2.5 13q10 14 23 27t30 26.5t28.5 22t33 23t29.5 19.5q129 92 182 123q11 5 19.5 0t8 -14t-10.5 -16q-47 -26 -162 -107q-34 -24 -87 -65
q-42 -33 -47 -38q113 -39 159 -67q19 -12 67.5 -45t76.5 -49z" />
    <glyph glyph-name="equal" unicode="=" horiz-adv-x="700" 
d="M525 394q18 -3 12 -19q-8 -17 -25 -16q-65 5 -100 4.5t-100 -4.5t-100 -5q-13 0 -16.5 9t2.5 17.5t17 9.5q35 0 103 4t103.5 4.5t103.5 -4.5zM517 278q13 -1 16.5 -10t-2.5 -17.5t-17 -8.5q-26 3 -161 0.5t-161 -2.5q-12 0 -16 8.5t2 17.5t17 9q26 0 161 3t161 0z" />
    <glyph glyph-name="greater" unicode="&#x3e;" horiz-adv-x="700" 
d="M525 311q3 -7 0 -14t-9 -10q-26 -16 -77 -32t-66 -23q-25 -11 -50 -24.5t-62 -35.5t-48 -28t-19.5 -1t-8 14t10.5 16q10 6 46.5 27.5t60.5 34.5t49 24q20 9 63 22.5t63 23.5q-9 7 -27 16.5t-24 13.5q-37 24 -82 50q-98 59 -157 90q-9 6 -8 15t10.5 15t18.5 2
q82 -43 189 -108q47 -29 81 -48q32 -19 46 -40z" />
    <glyph glyph-name="question" unicode="?" horiz-adv-x="700" 
d="M448 604q90 -61 -10 -223q-3 -5 -20.5 -32t-23.5 -37.5t-16 -31.5t-15 -39q-22 -72 -6 -163q1 -10 -7.5 -17.5t-19 -6.5t-11.5 12q-22 129 24 223q11 23 39 65t46.5 79t22.5 72q4 50 -33 70.5t-83 1.5q-5 -2 -10 -4.5t-15 -7t-17.5 -9t-17 -10.5t-15 -11.5t-11 -12.5
t-4 -12.5t4.5 -12.5q7 -8 2 -18t-14 -12.5t-17 3.5q-12 14 -13 29t5 27.5t18.5 25t24.5 21t26 15.5q30 17 54 26t55.5 8.5t56.5 -18.5zM363 8q7 11 22 10t14 -16q-1 -16 -16.5 -32.5t-32.5 -20.5q-13 -2 -22 4t-9 18q1 15 11.5 26t25.5 12q4 0 7 -1z" />
    <glyph glyph-name="at" unicode="@" horiz-adv-x="700" 
d="M578 449q25 -41 25.5 -88.5t-20.5 -90.5q-19 -40 -54.5 -63.5t-73.5 -6.5q-49 21 -67 78q-28 -44 -70 -66q-26 -11 -49 -12t-39.5 15.5t-15.5 47.5q0 46 33.5 90.5t77.5 64.5q14 7 28.5 10.5t29.5 3.5t25 -10t11 -29q0 -7 -5 -12q2 -3 2 -8v-14q-1 -58 17 -88
q13 -22 35 -35.5t42 -1.5q34 21 48.5 67.5t3.5 86.5q-13 46 -52 75t-88 28q-50 -1 -96.5 -24t-81.5 -62q-78 -88 -76 -190q1 -43 17 -76.5t52 -42.5q13 -3 26.5 -4t25 -1t27.5 3t26 4.5t27.5 7.5t25 8t27 10t24.5 10t25.5 11t22.5 10q17 8 20 -9q4 -17 -13 -24
q-112 -49 -179 -61q-93 -16 -141 20q-32 25 -44 68.5t-6 90.5q9 69 48 134t102.5 108t134.5 44q50 1 94 -18.5t68 -58.5zM331 263q43 42 47 96v12t5 11q-2 4 -2 8q-1 17 -32 1t-43 -26q-67 -62 -51 -112q6 -18 21 -18.5t28.5 8t26.5 20.5z" />
    <glyph glyph-name="A" unicode="A" 
d="M419 -31q4 -9 -3 -18.5t-16.5 -10t-15.5 8.5q-48 100 -94 258q-55 -1 -191 -15q-15 -52 -26 -89q-3 -7 -8 -25.5t-8.5 -28.5t-9 -25t-12.5 -26.5t-16 -21.5q-7 -9 -17 -7t-12.5 11t4.5 19q5 6 9.5 14.5t6.5 15t5.5 18t5.5 16.5q14 40 26 82q2 9 12 44q-1 -1 -4.5 -1h-5.5
q-17 -2 -17 14q1 16 17 20q1 1 3 1q1 0 17 1q13 48 21 75q2 7 13.5 46.5t14.5 50.5t12 45t13 51.5t10 45.5t10 51.5t7 47.5q2 15 17.5 18.5t20.5 -11.5q10 -30 25 -88t23 -83q20 -65 48 -169q21 -75 33.5 -117t35 -105t46.5 -113zM109 228q119 13 171 14q-5 19 -11 39
q-31 115 -51 181q-8 24 -24 88q-7 -32 -16.5 -70.5t-16 -62t-20.5 -72.5t-18 -64q-5 -18 -14 -53z" />
    <glyph glyph-name="B" unicode="B" 
d="M415 281q26 -63 -2.5 -132t-87.5 -109q-36 -24 -80 -30.5t-81.5 -0.5t-84.5 21q0 -28 -2 -53q-1 -15 -17 -18.5t-21 11.5q-71 207 -59 370q6 91 30 157q-6 68 -14 118q-2 16 17 22.5t21 -10.5q4 -27 8 -62q13 20 28 36q13 13 26.5 21.5t31.5 12.5t33 -5q49 -24 42 -87
q-8 -85 -66 -157q39 11 82 9t81 -13t69 -37t46 -64zM55 511q-3 -8 -6 -15q2 -26 5.5 -73t5.5 -66q46 37 76 87.5t29 103.5q0 28 -17.5 44t-41.5 -4q-29 -27 -51 -77zM26 297q-3 31 -7 76q-13 -119 21 -266q-2 73 -14 190zM320 78q29 26 47.5 60.5t21.5 73.5t-20 74
q-30 45 -87.5 63t-116.5 8.5t-102 -40.5q0 -1 0.5 -9t1.5 -12q14 -140 15 -227q34 -12 62 -19t61 -9.5t62.5 6.5t54.5 31z" />
    <glyph glyph-name="C" unicode="C" 
d="M13676 110q8 8 18 5.5t12.5 -10.5t-5.5 -18q-26 -25 -48 -43.5t-52.5 -37.5t-58.5 -26.5t-61 -5.5t-64 19q-65 34 -106 101.5t-55 146.5q-15 85 5.5 167t76.5 141q63 67 141 91q93 29 129 -7q8 -8 3.5 -18t-14.5 -12.5t-18 3.5q-11 11 -29.5 13t-39 -3.5t-37 -12.5
t-31.5 -15q-71 -40 -107 -99q-74 -119 -35 -266q18 -65 52 -119.5t86 -78.5q28 -13 56 -14t50 5.5t47.5 23.5t42.5 32t42 38z" />
    <glyph glyph-name="D" unicode="D" 
d="M273 574q96 -63 133.5 -170.5t8.5 -222.5q-34 -137 -122 -182q-77 -41 -207 -14q-6 -8 -18.5 -8t-16.5 11q0 1 -0.5 3l-0.5 2q0 1 -0.5 1h-1.5q-11 2 -12 11.5t6 16.5q-28 105 -47 255q-15 130 -7 190q9 57 33 94q-2 21 -5 40q-2 10 7 17.5t19 6.5t12 -12q1 -7 2 -17
q11 7 22 12q30 15 66.5 12t67.5 -15t61 -31zM26 470q-4 -30 -2 -73q1 -34 4 -70q-1 26 -1 74t-1 69zM385 222q13 106 -27.5 197t-131.5 138q-28 14 -55.5 21.5t-59 3.5t-50.5 -25q4 -46 4 -131.5t2 -121.5q2 -45 10.5 -139t10.5 -143q43 -10 73.5 -13.5t69 3t65.5 28.5
q74 62 89 182z" />
    <glyph glyph-name="E" unicode="E" 
d="M337 62q12 3 18 -4t3 -16.5t-14 -13.5q-12 -4 -43 -14.5t-53 -17t-44 -10.5q-67 -15 -103 0q-61 26 -75 126q-4 25 -5.5 50.5t-1.5 66.5v51q-2 87 -2 303q0 10 9 15q8 9 21 8q19 -4 61 -3t61 2.5t61 5.5t61 5q17 1 17 -14q0 -17 -16 -21h-4q-18 -2 -58 -5.5t-58.5 -5
t-58 -3t-57.5 1.5q-1 -193 0 -238q141 10 236 32q12 3 18 -4.5t3 -17t-14 -11.5q-101 -24 -242 -34v-2.5v-2.5v-60.5t3 -78.5q3 -30 6 -48.5t15 -45t32 -35.5q35 -18 107 1q17 5 37 11t43.5 14t36.5 13z" />
    <glyph glyph-name="F" unicode="F" 
d="M441 639q12 -1 16 -9.5t-2 -17.5t-17 -9q-26 1 -111.5 4t-131.5 3q-25 -1 -82.5 -5.5t-87.5 -4.5q3 -55 6 -81q1 -2 0 -5q10 -78 11 -90q5 -58 8 -101q40 3 114 13.5t96 13.5q17 2 17 -14q-1 -16 -17 -21h-3q-23 -3 -94.5 -13.5t-110.5 -13.5q0 -2 0.5 -5.5t0.5 -5.5
q1 -21 4 -75.5t5 -84.5q0 -11 1 -33t2 -35.5t3 -32.5t6 -35q2 -10 -6.5 -17t-19 -6t-12.5 12q-4 17 -6.5 37.5t-3 35.5t-1.5 39t-2 36q-2 26 -4.5 81t-4.5 84q-7 107 -14 169q-14 112 -14 138q0 2 1 4q-2 17 -2 24q-1 14 14.5 21t21.5 -3q13 -1 27.5 0t33.5 3t28 2
q57 4 114 4q38 -1 111 -3.5t106 -2.5z" />
    <glyph glyph-name="G" unicode="G" 
d="M368 265q18 -18 20 -46t-4 -51q-14 -89 -14 -187q0 -10 -9.5 -15.5t-19.5 -2t-10 15.5q1 87 8 145q-24 -39 -57 -73.5t-57 -47.5q-27 -15 -54.5 -21t-56.5 0.5t-51 28.5q-55 56 -69 157q-13 98 9 200.5t80 174.5q65 81 149 97q26 4 54 5.5t55 -10.5t38 -37q5 -9 -2.5 -18
t-17 -9.5t-14.5 7.5q-12 24 -43.5 30.5t-62 -0.5t-52.5 -19q-79 -44 -120 -144q-21 -54 -32 -112t-7.5 -120.5t25.5 -113.5q21 -47 54.5 -71.5t78.5 -6.5q52 22 97 82q2 2 9.5 12t10.5 13.5t9 13t9 15t7 14t6 16t3 15.5q2 27 -12 42q-9 2 -18.5 3t-17 1t-19 -1t-17.5 -2
t-19 -3t-17 -3q-125 -19 -140 -22q-10 -2 -14.5 5.5t-0.5 17t13 11.5q16 4 69 20t90 21.5t71 0.5q30 -5 47 -18q9 -4 16 -10z" />
    <glyph glyph-name="H" unicode="H" 
d="M348 350q1 -207 16 -357q1 -16 -17.5 -22.5t-20.5 10.5q-14 138 -16 306q-120 -53 -243 -72q3 -121 12 -224q2 -16 -17 -22t-21 11q-10 107 -12 232q-8 3 -8 12.5t7 16.5q-1 128 8 394q0 10 9.5 15.5t19 2t9.5 -14.5q-9 -265 -7 -388q124 18 243 74q0 28 0.5 95.5t0 117
t-4.5 95.5q-2 16 17 22q18 7 21 -11v-2v-4q3 -43 4 -88t0.5 -111t-0.5 -88z" />
    <glyph glyph-name="I" unicode="I" 
d="M399 6q19 -4 11 -21q-7 -17 -23 -14q-31 6 -70 6.5t-60 -1t-70 -5.5q-27 -2 -90.5 -4t-97.5 -6q-10 -1 -14.5 6.5t-0.5 16.5t13 11q1 0 3 0.5t3 1.5q5 1 9 0q21 2 152 8q-2 29 -7.5 95.5t-8 116t-2.5 95.5q1 51 10.5 147.5t10.5 141.5q-18 0 -59 -3t-59.5 -3.5t-59.5 0.5
q-18 2 -11 18q7 17 24 17q39 -2 59 -1t60.5 4t59.5 4q7 2 14 0q95 3 190 2q12 -1 15.5 -9.5t-2 -17.5t-16.5 -9q-92 2 -177 0q-1 -43 -10.5 -140t-9.5 -149q0 -45 2.5 -95.5t7.5 -115t7 -96.5q1 0 5.5 0.5t6.5 0.5q118 10 185 -2z" />
    <glyph glyph-name="J" unicode="J" 
d="M405 590q14 -3 12.5 -17t-15.5 -17q-13 -2 -27 -2.5t-33 0t-27 0.5q-15 0 -45 -1q0 -2 1 -4q3 -15 10 -31q30 -70 35 -145q6 -85 -6 -181q-13 -97 -28 -136q-26 -62 -75.5 -88.5t-113.5 -8.5q-36 10 -64 31.5t-43 52.5q-9 21 -9 48.5t3 43.5t11 48q3 10 13.5 13
t18.5 -2.5t5 -17.5q-7 -26 -9.5 -45t-1.5 -42t12 -41.5t32 -32.5q20 -13 42.5 -21t49 -8t45.5 12q11 8 21 18t17.5 24.5t13 26t9.5 31t6.5 30.5t4.5 33t3 30t2.5 31t1.5 26q8 111 -9 183q-3 15 -18 51t-17 55q-1 9 -1 16h-26q-21 -1 -58.5 -2t-51.5 -1q-7 0 -23 -0.5
t-25.5 -1t-23 1t-23.5 4.5q-12 4 -13 13.5t7 17t18 4.5q11 -3 24.5 -4.5t23.5 -1t26.5 1t23.5 1.5q89 2 97 2h43q38 28 154 2z" />
    <glyph glyph-name="K" unicode="K" 
d="M250 400q-6 -8 -33 -42.5t-38 -49t-29.5 -41.5t-32.5 -49q-8 -14 -12.5 -23.5t-7.5 -22t3 -21.5t21 -15q10 -4 31 -11t32 -12q77 -32 168 -114q8 -7 4 -17t-14 -13t-19 3q-103 92 -197 122q-37 12 -55 31q-5 -18 -8 -35q0 -9 -2 -51t-3 -65q0 -9 -9 -14.5t-18.5 -4
t-10.5 11.5q-7 58 5 120q1 29 0 51q0 28 -2 84.5t-3 84.5q0 18 1 170q0 13 2 47t1.5 59t-5.5 46q-2 10 6.5 17.5t18.5 6.5t13 -12q5 -23 5.5 -49t-1 -62.5t-2.5 -50.5q-1 -151 0 -170q0 -7 3 -103q26 59 67 123q52 82 122 164q4 4 27 32t32 37.5t28.5 26.5t37.5 27
q12 6 23 -2t2 -20q-27 -33 -151 -194z" />
    <glyph glyph-name="L" unicode="L" 
d="M376 6q12 -1 15.5 -10t-2.5 -17.5t-16 -7.5q-181 8 -288 -3q-50 -6 -72 14q-20 18 -23 86q-2 52 4.5 153.5t7.5 112.5q7 188 -2 293q-2 16 17 22t21 -11q3 -40 4.5 -85.5t1.5 -79.5t-2 -87.5t-3 -79.5t-5 -87.5t-5 -81.5q-4 -78 7 -115q3 -9 9.5 -14.5t16.5 -6.5t18 -0.5
t20 2.5t17 3q99 7 259 0z" />
    <glyph glyph-name="M" unicode="M" 
d="M366 285q2 -60 12 -170t13 -144q1 -16 -18 -22q-18 -4 -20 10q-2 35 -12.5 143.5t-12.5 167.5q-1 39 2 187q-19 -67 -38 -116q-8 -21 -15.5 -36.5t-21.5 -36.5t-31.5 -30t-37.5 -4t-35 19t-23.5 37t-13 39.5t-8.5 40.5q-8 44 -14 86q-5 -40 -20 -168q-2 -12 -8 -62
t-8 -70t-6 -59t-5 -70t-1 -62q0 -15 -18 -18q-19 -1 -20 16q0 31 1 62t4.5 69.5t6 59.5t8.5 69.5t7 61.5q27 232 45 331q2 10 11 15.5t18 2.5t9 -15q3 -87 24 -216q0 -2 1.5 -12.5t2.5 -17t3.5 -18t5 -20t5.5 -19t7 -18t9 -14.5t11 -11t13 -4q8 -1 16 3.5t14.5 14.5t12 20
t11 24.5t8.5 23.5t7 22t4 15q25 78 59 211q3 11 19.5 13.5t17.5 -11.5q3 -47 0 -159.5t-1 -160.5z" />
    <glyph glyph-name="N" unicode="N" 
d="M352 229q4 -111 -14 -177q-6 -19 -10.5 -31.5t-13 -29t-21.5 -25.5t-30 -10q-42 -3 -85 72q-41 72 -74 163q-27 74 -45 152q-1 -66 -2 -108q-2 -127 -7 -184q0 -2 -0.5 -13t-1.5 -17t-3 -16t-5 -16t-8.5 -10.5t-13.5 -5.5q-17 -1 -17 14q0 17 17 21h3q-12 -1 -16 -8
q1 2 2 6q1 10 3 22q2 27 4 65q4 71 6 181q1 42 1.5 141t1.5 152q0 8 9 14t18.5 4.5t10.5 -11.5q16 -171 62 -316q28 -89 62 -156q1 -4 9.5 -21.5t13 -26.5t13 -23t17.5 -22.5t19 -13.5q13 -6 24 9.5t17.5 42.5t9.5 47.5t4 33.5q5 65 -2 157q-12 167 -63 325q-3 10 5 17
t18.5 6t14.5 -11q60 -187 67 -393zM5 0z" />
    <glyph glyph-name="O" unicode="O" 
d="M386 508q28 -67 24 -147t-26.5 -152.5t-60.5 -137.5q-57 -100 -125 -120q-41 -12 -79.5 0.5t-66.5 45.5q-39 47 -55.5 116t-11.5 136t26 127q44 123 139 209q68 62 117 65q15 11 24 0l1.5 -1.5l1.5 -1.5q15 -4 29 -13q13 -9 0 -22q44 -55 63 -104zM336 188q39 117 34 205
q-3 62 -29 115t-72 107q-26 2 -60 -22t-55.5 -48t-39.5 -49q-74 -102 -87 -215q-10 -86 12 -164q29 -105 85 -129q19 -8 37 -8.5t33 5t29.5 16t26.5 24t23.5 31t20.5 34t17 35t14 33.5t11 30z" />
    <glyph glyph-name="P" unicode="P" 
d="M289 599q66 -68 83.5 -173.5t-30.5 -189.5q-26 -43 -67.5 -67t-88.5 -13q-64 14 -147 84q-4 -93 -2 -147q5 -56 14 -117q1 -10 -7 -17.5t-18 -6.5t-13 12q-10 49 -14 106q-24 220 10 366q2 109 -7 189q-2 16 17 22.5t21 -10.5q4 -44 6 -94q30 56 72 83q44 26 89.5 18
t81.5 -45zM325 286q11 37 11.5 80.5t-9.5 85.5t-33 79t-56 60q-30 21 -58 21t-48.5 -16t-38 -44.5t-28 -58t-18.5 -62.5q-1 -47 -4 -127q-1 -6 -1 -16q3 -1 6 -3q2 -1 16 -14t17.5 -16t17 -13.5t19.5 -14.5t18.5 -12t21 -11.5t19.5 -7.5t22 -6q45 -7 79 21.5t47 74.5z" />
    <glyph glyph-name="Q" unicode="Q" 
d="M392 -21q6 -9 -0.5 -18t-16.5 -9.5t-18 6.5q-43 64 -63 95q-11 -15 -22 -28q-35 -38 -77.5 -58.5t-86.5 -9.5q-71 17 -109 120q-37 97 -21 217q19 139 87 241q54 82 110 101q4 7 12 11t16 0q5 -3 10 -5q15 -1 31 -5q16 -5 11 -21q15 -10 28 -21q51 -46 74.5 -113
t23 -131.5t-17.5 -136.5q-17 -70 -45 -122q26 -44 74 -113zM175 -5q60 24 100 90q-5 9 -8 14q-5 10 -14.5 29.5t-14.5 28.5q-1 1 -5 10t-7.5 15.5t-7.5 7.5q-9 7 -8 16t11 15t19 1q12 -6 22.5 -22.5t20.5 -40.5t13 -30q1 0 1 -0.5v-1.5q35 80 43 182q8 116 -29 185
q-35 67 -111 111q-75 -7 -137 -147q-51 -114 -50 -226q0 -21 3 -48t11 -59.5t20 -59.5t30.5 -48.5t42.5 -27t55 5.5z" />
    <glyph glyph-name="R" unicode="R" 
d="M368 8q5 -9 -2 -18t-17 -9.5t-16 7.5q-45 89 -88 223q-7 24 -13.5 40t-20.5 35t-32 26q-20 9 -40 7q-30 -21 -62 -37h-1q1 -28 0.5 -103t0.5 -104q7 -61 8 -98q1 -9 -8 -15t-19 -4t-11 12q-6 43 -8 96q0 8 -4 44.5t-5.5 48.5t-4 43t-2.5 48t0.5 43t3 48t7.5 44
q-7 163 -8 216q-1 10 9 15.5t19.5 2t9.5 -14.5q1 -46 4 -112q45 103 120 136q23 12 55 7t47 -29q24 -40 -5 -106q-36 -85 -106 -148q38 -9 63 -42q11 -15 20 -34t13 -30t12 -38t10 -34q23 -72 71 -166zM153 560q-62 -71 -81 -172q2 -35 3 -63q22 18 49 25q80 59 119 142
q36 79 6 100q-42 29 -96 -32z" />
    <glyph glyph-name="S" unicode="S" 
d="M273 326q33 -25 60.5 -65t43.5 -84.5t6.5 -90t-49.5 -74.5q-40 -30 -92 -39t-100 7q-49 16 -78.5 52t-55.5 94q-5 9 2.5 18t17 9.5t14.5 -7.5q1 -3 5.5 -12.5t6 -12.5t5.5 -11.5t6.5 -12.5t6.5 -11.5t7.5 -12t7.5 -10.5t8.5 -10.5t9.5 -8.5q54 -46 125 -37q63 7 95 47.5
t16 101.5q-27 106 -130 166q-25 14 -93 47q-47 23 -62 40q-20 23 -21.5 49t12.5 49.5t33.5 42.5t42.5 34q17 11 37.5 21.5t49 21.5t52 8t34.5 -22q5 -10 -2 -18.5t-17 -9.5t-16 8q-10 19 -77 -13q-68 -33 -96 -72q-37 -52 14 -87q25 -17 84 -45t87 -50z" />
    <glyph glyph-name="T" unicode="T" 
d="M454 643q17 2 17 -14q-1 -16 -17 -21h-3q-174 -20 -250 -30q-1 -49 -8.5 -137t-9.5 -115q-10 -175 -10 -338q0 -10 -9.5 -15.5t-19 -2t-9.5 15.5q0 169 10 338q2 25 9.5 112.5t8.5 135.5q-56 -8 -103 -18q-4 -1 -37.5 -9.5t-50.5 -9.5q-11 -1 -16 7v1.5t-1 0.5
q-6 12 5.5 22t22.5 5q18 1 50.5 10t43.5 11q64 12 117 19q86 12 260 32z" />
    <glyph glyph-name="U" unicode="U" 
d="M350 620q16 -75 23 -120.5t13.5 -113t-0.5 -126.5t-25 -113q-14 -38 -33 -72.5t-46 -66.5t-63.5 -49.5t-76.5 -12.5q-33 4 -59 23.5t-41.5 45.5t-26 61t-15.5 64t-7 62q-18 223 60 433q6 16 24 13q18 -2 12 -20q-71 -191 -60 -386q5 -100 27 -160q32 -89 83 -99
q32 -6 61 5.5t50 33.5t39 53t29 60t17 57q12 49 14.5 101t-4 110.5t-13 99t-20.5 106.5q-2 10 7 17t19 6t12 -12z" />
    <glyph glyph-name="V" unicode="V" 
d="M331 610q6 16 25 13q18 -2 11 -19q-52 -131 -85 -233t-51 -203q-15 -86 -17 -112q0 -1 -1.5 -21.5t-3.5 -31.5q-4 -20 -17.5 -35.5t-30.5 -0.5q-6 5 -11 12.5t-9 18t-6 17.5t-5 20t-4 16.5t-28 109.5q-98 391 -113 447q-3 10 5.5 17t19 6t13.5 -11q24 -89 100 -396
q5 -20 14 -62t17.5 -75t19.5 -61q2 30 3 40q17 115 32 177q34 146 122 367z" />
    <glyph glyph-name="W" unicode="W" 
d="M360 593q5 -195 -4 -305q-5 -59 -8.5 -92.5t-13.5 -83.5t-24 -89q-19 -51 -43 -59q-18 -6 -32.5 3.5t-24.5 28.5q-25 52 -36 140q-7 -38 -11 -75q0 -2 -1.5 -20.5t-2.5 -25.5t-4 -21t-8 -23.5t-13 -16.5q-7 -6 -16 -6t-14 8q-7 11 -12 23.5t-9 29t-5.5 25t-4 29.5
t-3.5 27q-19 127 -28 172q-41 206 -80 328q-3 9 5 16.5t19 6.5t14 -12q44 -135 80 -327q10 -55 26 -162q2 -9 4 -29.5t4.5 -35.5t6.5 -29q1 8 1 10q1 6 2.5 25.5t2.5 30.5q13 90 40 158q4 11 19.5 14t17.5 -11q0 -5 2 -28.5t2.5 -31.5t3 -28.5t4 -32t4.5 -28.5t7 -31t9 -27
q3 -10 12 -26.5t12 -10.5q8 12 13 28q17 48 26 101q31 175 22 460q0 10 9.5 15.5t19.5 2t10 -14.5z" />
    <glyph glyph-name="X" unicode="X" 
d="M302 465q-44 -73 -92 -169q-4 -10 -14 -30q39 -80 74 -144t74 -122q6 -9 -0.5 -17.5t-17 -9.5t-17.5 7q-63 93 -135 241q-79 -161 -130 -246q-6 -9 -17 -9.5t-15.5 6.5t0.5 18q48 80 142 271q-8 16 -32.5 67.5t-36 75t-32 64t-39 73.5t-37.5 64q-6 9 1 18t16.5 10
t16.5 -8q12 -18 24 -39t21 -37.5t21.5 -41t19.5 -38.5l21 -42t19 -38.5t20 -42.5t19 -40q1 1 2 3.5t2 3.5q48 98 83 157q8 12 42.5 64t48.5 82q7 15 26 12q18 -2 10 -19q-14 -29 -48 -81t-40 -63z" />
    <glyph glyph-name="Y" unicode="Y" 
d="M304 640q6 16 25 13q18 -2 11 -20q-7 -20 -33.5 -95.5t-41.5 -116.5q-2 -5 -7.5 -22.5t-10 -30t-13 -27t-18.5 -22.5q4 -22 4.5 -47t1 -56.5t0.5 -48.5q1 -18 4 -87t4 -106q0 -10 -9.5 -15.5t-19.5 -2t-10 14.5q0 35 -3 99t-4 82v50t-1.5 59.5t-4.5 50.5q-17 6 -30 30
q-21 39 -45 99q-10 24 -38 84.5t-41 93.5q-3 10 5 17t19 6t14 -11q10 -28 34 -77.5t33 -70.5q23 -59 32 -78q2 -4 6.5 -12.5t10.5 -20t11.5 -18.5t6.5 -4q11 18 19.5 38.5t20.5 56.5t14 41q7 20 25.5 72.5t28.5 81.5z" />
    <glyph glyph-name="Z" unicode="Z" 
d="M258 365q-73 -90 -126 -173t-83 -170q-3 -9 -7 -23.5t-2 -13.5q3 1 12.5 5t14.5 5q34 12 96 23q56 11 202 22q17 1 17 -14q-1 -17 -17 -21h-3q-142 -11 -216 -25q-42 -8 -92 -26q-30 -11 -45 1q-16 13 -6 43q17 53 33 85q47 99 94 169q48 71 118 155q14 16 39.5 45
t46.5 53.5t37 47.5q8 12 0 19t-27.5 8.5t-32 1.5t-23.5 -1q-15 -1 -41.5 -2.5t-38.5 -2.5q-8 -1 -33 -3t-37 -2.5t-32.5 -0.5t-37 2.5t-32.5 7.5q-12 3 -12.5 13t7 17.5t17.5 3.5q27 -8 54 -9t73.5 3t54.5 4t48.5 4.5t66 2.5t46.5 -12q14 -6 20 -15t6 -17.5t-6 -20.5
t-11.5 -19.5t-14.5 -18.5q-13 -16 -58 -68.5t-69 -82.5z" />
    <glyph glyph-name="bracketleft" unicode="[" horiz-adv-x="700" 
d="M424 37q17 2 17 -13q-1 -17 -17 -22h-3q-12 -1 -33.5 -4.5t-36 -5.5t-33.5 -2t-35 3q-15 4 -24 12t-11.5 20.5t-2.5 23t1.5 27t1.5 24.5q-1 14 -1.5 59t-1 66t0.5 55.5t3 63.5q1 14 4.5 50t5 55t3 48.5t0.5 55t-4 50.5q-1 8 5 15.5t15 7.5q10 0 32.5 1.5t35 1.5t31 -3
t32.5 -10q10 -7 8.5 -16t-11 -15t-18.5 -1q-18 9 -44 10t-46 -2q6 -70 -6 -195q-10 -113 -8 -214q0 -8 1 -31t1 -31.5t-1 -31.5q0 -1 -1.5 -13.5t-1.5 -17t1 -13.5t6 -13t13 -6q30 -1 41 -0.5t40.5 5.5t40.5 6z" />
    <glyph glyph-name="backslash" unicode="\" horiz-adv-x="700" 
d="M477 4q4 -9 -3 -18.5t-16.5 -10t-15.5 8.5q-72 154 -128 301q-35 92 -54 152q-32 101 -57 147q-5 9 2 18t16.5 10t15.5 -8q22 -39 39.5 -86.5t36 -106.5t30.5 -91q59 -156 134 -316z" />
    <glyph glyph-name="bracketright" unicode="]" horiz-adv-x="700" 
d="M404 627q15 -5 23 -14t9.5 -23t0.5 -25.5t-4 -28.5t-4 -25q-7 -77 -7 -240q0 -42 -1.5 -124t-1.5 -122q0 -12 -16 -18q-18 -7 -37.5 -8t-48.5 1.5t-39 2.5q-12 1 -15.5 9.5t2 17.5t16.5 8.5t33 -2.5t33.5 -2.5t33.5 2.5q0 293 5 397q3 61 8 101q0 3 2 11.5t3 15t1 14
t-3.5 12.5t-9.5 6q-10 2 -19.5 2.5t-21 -0.5t-18.5 -2t-21.5 -4t-18.5 -4q-17 -3 -16 12q0 17 16 22q1 1 3 1q4 1 18 3.5t20 3.5t18.5 2.5t20 1.5t18 -1t18.5 -3z" />
    <glyph glyph-name="asciicircum" unicode="^" horiz-adv-x="700" 
d="M437 409q4 -10 -3 -19t-16.5 -9.5t-15.5 8.5q-23 51 -41 106q-4 10 -7.5 30.5t-6.5 29.5q-6 -10 -10.5 -22t-10 -28t-8.5 -23q-21 -54 -39 -89q-6 -10 -16 -10.5t-16 7t0 18.5q11 22 25 63t29.5 74.5t37.5 55.5q7 7 15.5 6.5t14.5 -7.5q6 -8 10.5 -18t6 -17.5t4 -20.5
t3.5 -19q9 -39 44 -116z" />
    <glyph glyph-name="grave" unicode="`" horiz-adv-x="700" 
d="M352 465q5 -9 -2 -18t-16.5 -9.5t-16.5 7.5q-30 55 -23 111q2 15 21 18q17 3 18 -12v-3q-7 -48 19 -94z" />
    <glyph glyph-name="a" unicode="a" 
d="M375 -19q6 -8 -0.5 -16.5t-17 -9.5t-17.5 6q-47 63 -64 159q-1 5 -3 14q-32 -66 -86 -106q-29 -21 -59.5 -31t-61.5 0t-47 44q-13 30 -6.5 59.5t27 58t45.5 50t49 34.5q17 9 43 17.5t58 12.5t51 -7q9 2 15.5 -1.5t5.5 -13.5q0 -1 -1 -8q2 -8 3 -16q0 -8 -8 -14
q0 -26 17 -103q17 -76 57 -129zM199 85q49 56 65 132q0 8 1 16q-7 5 -23 5t-28 -2t-17 -4q-52 -15 -86 -47q-42 -38 -54 -71q-9 -19 -5 -47t26 -37q29 -12 62.5 7t58.5 48z" />
    <glyph glyph-name="b" unicode="b" 
d="M324 241q44 -48 49.5 -114t-34.5 -119q-25 -32 -57.5 -48t-69 -15t-68.5 8.5t-72 22.5q-7 -6 -17 -4.5t-14 10.5q0 2 -0.5 4t-0.5 3q-13 6 -5 19l-2 12q-22 104 -23 298q0 49 -2 151.5t-2 155.5q0 10 9.5 15.5t19 2t9.5 -14.5q0 -54 2.5 -156.5t2.5 -150.5q0 -90 3 -143
q17 38 42 64q47 49 115.5 49.5t114.5 -50.5zM315 35q27 44 18.5 99.5t-47.5 89.5q-45 39 -100 30.5t-85 -59.5q-44 -77 -30 -165l3 -15q25 -10 42 -16t43 -13t46 -7t41.5 3.5t39 17t29.5 35.5z" />
    <glyph glyph-name="c" unicode="c" 
d="M329 68q15 12 29 -1q11 -11 -3 -22q-20 -16 -33.5 -26.5t-34 -24.5t-38 -21.5t-38 -14t-41.5 -5.5t-43 7q-42 14 -66.5 50.5t-26.5 82.5q-2 47 16 92t54 72q27 21 57 33.5t65 11t60 -25.5q8 -7 3.5 -17t-14.5 -13t-18 3q-22 20 -50.5 18t-55.5 -17.5t-43 -35.5
q-45 -60 -34 -127q5 -36 25 -62.5t52 -32.5q12 -2 24 -2t21.5 1t21.5 5t20 7.5t20 11t18.5 11.5t18.5 13.5t17 13.5t17 15z" />
    <glyph glyph-name="d" unicode="d" 
d="M393 567q6 -57 -1 -127q-17 -179 -54 -274q-16 -41 -34 -72q10 -56 24 -124q3 -10 -5.5 -17t-19 -6t-12.5 12q-11 47 -18 87q-35 -43 -77 -64q-35 -19 -82.5 -11t-69.5 42q-19 34 -19 70t15 72q32 77 102 111q63 30 103 24q-2 97 16 181q16 79 39 130q20 43 50 44
q33 0 43 -78zM206 28q33 26 58 66q-14 85 -18 157q-26 15 -71.5 -5t-67.5 -45q-24 -28 -36.5 -65.5t-5.5 -70.5q7 -31 32 -47t55 -13t54 23zM358 494q0 46 -5 73q-4 23 -7 30q6 22 -4 6q-22 -36 -39 -112q-23 -101 -18 -221q5 -6 9 -12q9 -14 -7 -24q3 -38 8 -80
q16 39 28 86q33 131 35 254z" />
    <glyph glyph-name="e" unicode="e" 
d="M317 35q18 7 21 -10q4 -17 -14 -24q-27 -11 -37.5 -14.5t-39.5 -13.5t-46 -12t-41.5 -3t-43.5 5.5t-35 19.5q-33 27 -41.5 66t4 76.5t37 71.5t55.5 54q18 13 49 22.5t63 12.5t52 -14t14 -53q-10 -58 -86 -113q-75 -55 -132 -81q18 -24 47 -28q28 -5 62.5 1.5t53 13.5
t58.5 23zM127 200q-64 -67 -50 -132q2 -7 4 -13q40 18 109 65q23 16 34 24t28 26.5t21 35.5q9 29 -9.5 40t-47.5 4q-53 -12 -89 -50z" />
    <glyph glyph-name="f" unicode="f" 
d="M287 607q51 -60 17 -185q-3 -10 -13.5 -13t-18.5 2.5t-5 17.5q8 28 11 55t-3.5 58t-26.5 48q-24 19 -47 19t-41 -13.5t-33.5 -36t-25 -45.5t-14.5 -44q-20 -87 -8 -238q0 -1 0.5 -2t0.5 -2q11 0 46 2q106 7 148 5q12 0 16 -9t-2 -18t-17 -8h-53.5t-53.5 -2.5t-53 -3.5
q-1 0 -12 -0.5t-16 -0.5q5 -52 28 -224q2 -16 -17 -22.5t-21 10.5q-25 191 -30 237q-17 3 -24 2q-17 -3 -16 13q0 16 16 21q2 1 3 1q7 1 18 0q-3 38 -4 68q-3 86 8 156t50 121q24 32 56.5 50.5t70 15.5t66.5 -35z" />
    <glyph glyph-name="g" unicode="g" 
d="M333 116q16 -82 16 -146q-1 -161 -56 -247q-28 -45 -72 -71.5t-89 -10.5q-10 3 -19 7.5t-17.5 12t-14.5 12.5t-14.5 16t-12.5 16t-12 18.5t-10 17t-10.5 19t-9.5 17.5q-5 9 2 18t16.5 9.5t16.5 -7.5q2 -5 11 -22t14 -25.5t14.5 -23t17.5 -22.5t19.5 -16.5t23.5 -12.5
q24 -8 47.5 0.5t41 28.5t30 42.5t19.5 44.5q36 119 21 243q-4 41 -18 94q-23 -68 -76 -113q-21 -17 -46.5 -27t-50.5 -11t-46.5 13.5t-30.5 44.5q-16 50 2 105.5t58 95.5q16 16 41.5 33t56 30t59 9.5t44.5 -27.5q7 -12 -6 -22q2 -6 2 -8q2 -7 17.5 -57.5t20.5 -77.5zM215 68
q60 82 43 169q-3 13 -6 23q-1 5 1 9q-15 6 -39 -0.5t-40 -15.5q-46 -27 -73 -67q-19 -31 -27.5 -64t0.5 -69q8 -28 27 -37t40.5 -1.5t41 22t32.5 31.5z" />
    <glyph glyph-name="h" unicode="h" 
d="M351 -13q6 -8 0 -16.5t-16.5 -9.5t-18.5 6q-48 62 -72 136q-4 11 -14 61t-24 72q-28 46 -61 2.5t-48 -92.5q-22 -72 -24 -165q-1 -14 -18.5 -18t-20.5 11q-3 17 -4.5 38.5t-2 33t-0.5 41v34.5q0 26 -1 83.5t-2 88.5q0 42 4.5 112t6 112.5t-2.5 111.5q-2 16 17 22.5
t20 -10.5q5 -67 3.5 -106.5t-6 -106t-3.5 -106.5q0 -10 2 -156q3 9 7 17q50 114 115 112q16 -1 29 -10t20.5 -20t14 -30t9 -29.5t5.5 -29.5q21 -106 86 -189z" />
    <glyph glyph-name="i" unicode="i" 
d="M215 444q8 8 18 5.5t12.5 -10.5t-5.5 -18q-47 -46 -80 -38q-11 3 -12 12t6 17q13 15 32 19q7 2 13 -1q7 5 16 14zM173 261q2 15 20 18q18 2 18 -12q1 -2 0 -4q-25 -180 -13 -297q2 -16 -17 -22t-21 11q-13 124 13 306z" />
    <glyph glyph-name="j" unicode="j" 
d="M359 261q8 -43 7 -79q-2 -65 -21 -145q-31 -133 -79 -191q-33 -40 -76 -56t-90 -1q-103 32 -63 182q2 10 12.5 13t18.5 -2.5t5 -17.5q-18 -67 -6 -99q9 -22 31 -34.5t48 -13.5q73 -4 119 93q29 62 48 152t13 151q-4 49 -16 77q-11 29 -14 47q-2 16 17 22t21 -11
q2 -15 12.5 -43.5t12.5 -43.5zM359 443q4 -7 1 -14t-10 -11q-3 -1 -18 -10.5t-25.5 -13.5t-20.5 -4q-16 0 -20.5 12t4.5 24q8 11 23 16t28 -2q8 5 13 8q17 9 25 -5z" />
    <glyph glyph-name="k" unicode="k" 
d="M323 -15q7 -8 2 -18.5t-14.5 -13t-16.5 4.5q-22 25 -66 69t-63 65h-1q-12 -17 -40 -65.5t-49 -70.5q-7 -8 -18.5 -6.5t-13.5 11.5q-8 35 -9 82t0 82q1 92 3 170q2 93 1 336q0 10 10 15.5t19.5 2t9.5 -14.5q0 -238 -2 -337q-2 -91 -2 -169q-1 -93 1 -115q5 8 13.5 23
t10.5 19q18 32 56 79q65 83 129 140q14 13 27 1q11 -11 -2 -23q-60 -54 -118 -128q20 -23 65.5 -68.5t67.5 -70.5z" />
    <glyph glyph-name="l" unicode="l" 
d="M166 622q-1 -149 6 -634q0 -10 -9.5 -15.5t-19.5 -2t-10 15.5q-6 485 -5 634q0 10 9.5 15.5t19 2t9.5 -15.5z" />
    <glyph glyph-name="m" unicode="m" 
d="M375 217q5 -29 8 -64t4.5 -60t2.5 -66t2 -61q1 -10 -8.5 -15.5t-19 -2t-10.5 14.5q-1 21 -2 61t-3 72t-5 60q-6 55 -12 76q-7 21 -14 26q-8 5 -27 -15q-14 -16 -26 -39.5t-17.5 -39.5t-13.5 -45q-26 -87 -43 -173q-2 -13 -18.5 -18t-19.5 11q-7 45 -4 137t-4 138
q-3 18 -6 26l-2 4q-3 -2 -6.5 -5.5l-6 -6t-5.5 -7l-5 -7.5t-4.5 -8.5t-4 -8t-4 -9t-3 -8t-3.5 -8.5t-3 -8q-29 -74 -64 -215q-4 -13 -19 -14.5t-18 11.5q-4 11 -4.5 23t0 29.5t0.5 22.5q1 62 1 90q1 12 4.5 46.5t2.5 58.5t-9 46q-3 9 5 16.5t19 6.5t14 -12q8 -21 9 -44
t-2 -57.5t-4 -45.5q0 -14 -1 -36q22 70 47 120q4 7 10 16t15 20t19 19t19.5 12t19 0t15.5 -17q8 -16 12.5 -39.5t5 -35t0.5 -47.5v-37v-3.5v-2.5q9 32 19 59q7 23 14 39t18.5 36.5t27 35t33.5 21.5q58 22 74 -73z" />
    <glyph glyph-name="n" unicode="n" 
d="M379 -14q6 -9 -1 -17.5t-17 -9.5t-16 7q-40 66 -63 162q-1 4 -4 20t-6 26.5t-7.5 23.5t-12 21.5t-17.5 12.5q-53 18 -115 -91q-46 -81 -55 -165q-1 -15 -19 -18q-18 -1 -19 16q2 26 7 75t7 71q1 13 2 40t3 47.5t5 39.5q3 16 23 18q15 1 16 -12v-4q-5 -25 -9 -105
q8 15 16 27q60 92 122 97q67 6 90 -84q2 -6 7.5 -28.5t8 -30.5t8 -27.5t9.5 -30t10 -26t12.5 -29t14.5 -26.5z" />
    <glyph glyph-name="o" unicode="o" 
d="M346 178q16 -30 15.5 -65.5t-17.5 -65.5q-28 -47 -83 -69.5t-111 -14.5q-64 9 -95.5 53.5t-20.5 108.5q7 40 29.5 76t55.5 55q21 12 44.5 18t49 2.5t43.5 -19.5q67 -33 90 -79zM314 68q13 26 9 50t-14.5 42.5t-31 35t-41 28t-44.5 20.5q-23 1 -48 -12.5t-39 -32.5
q-44 -60 -36 -116q6 -41 37.5 -64t73.5 -23q43 1 81.5 18.5t52.5 53.5z" />
    <glyph glyph-name="p" unicode="p" 
d="M183 248q28 3 52.5 -10t40 -36.5t26 -52.5t10 -57.5t-8.5 -51.5q-11 -28 -30 -46t-44.5 -25.5t-50 -9.5t-55.5 -1q-1 -43 -1 -69q-1 -41 2 -145t1 -161q0 -8 -9 -14t-18.5 -4.5t-10.5 11.5q-3 39 -10.5 105t-11.5 105t-7 105t2 105q7 85 24 138q0 27 3 47q1 9 10 14t18 4
q30 44 68 49zM272 76q3 71 -39 112q-53 53 -92 -13q-10 -18 -18 -40q0 -12 2 -43t1 -47q0 -20 -1 -51q24 -4 49.5 -1t47 9t35.5 25t15 49z" />
    <glyph glyph-name="q" unicode="q" 
d="M329 -180q10 14 26.5 7.5t5.5 -22.5q-6 -7 -18.5 -23.5t-19.5 -26.5t-17 -24t-17 -27q-12 -20 -26.5 -60.5t-22.5 -56.5q-6 -11 -19 -13.5t-18 11.5q-5 17 -6.5 34.5t-0.5 48t1 34.5q0 94 3 160q4 84 12 197q-25 -31 -56 -49q-21 -12 -47 -15t-48 10t-23 42q-3 41 17 78
t55 60q19 12 43.5 21.5t52.5 9t41 -19.5q13 -2 12 -15q0 -7 -1 -14q-15 -185 -19 -289q-4 -80 -4 -160v-14.5t-0.5 -17.5t-0.5 -15q9 23 17 38q17 30 78 111zM170 65q44 48 50 100q-3 3 -4 7q-3 8 -16 8.5t-24 -2t-19 -6.5q-30 -12 -49 -33q-17 -18 -27 -42.5t-4 -44.5
q6 -23 25.5 -23t37 11t30.5 25z" />
    <glyph glyph-name="r" unicode="r" 
d="M311 219q6 -9 -0.5 -17.5t-16.5 -9.5t-17 7q-9 13 -17 22t-18.5 16.5t-23 5.5t-25.5 -13q-34 -30 -53 -72q-35 -80 -33 -169q1 -19 2 -27q1 -16 -17.5 -22.5t-20.5 10.5l-2 34q-2 66 -2 97t1 96.5t2 96.5q0 11 9.5 16t19 1.5t9.5 -14.5q0 -31 -2 -105q14 27 31 48
q48 59 97 59q17 0 32.5 -10.5t24 -21t20.5 -28.5z" />
    <glyph glyph-name="s" unicode="s" 
d="M259 113q37 -23 42 -55.5t-30 -63.5q-26 -22 -56.5 -28.5t-62.5 2t-58 21t-57 31.5q-9 8 -7.5 17t11 15t17.5 0q29 -18 44.5 -27t43.5 -19t51 -8q25 1 52.5 22t9.5 44q-20 24 -80 44t-73 28q-51 30 -12 81q35 45 101 65q65 19 98 -10q8 -7 3.5 -17t-14 -13t-18.5 3
q-20 11 -57.5 2.5t-69.5 -31.5t-21 -39q4 -6 13 -11.5t16 -8t19 -6.5l15 -5q61 -22 80 -33z" />
    <glyph glyph-name="t" unicode="t" 
d="M279 467q12 3 18.5 -4.5t3 -17t-14.5 -11.5q-43 -8 -108 -24q-2 -227 13 -424q1 -16 -17.5 -22t-20.5 11q-16 199 -14 426q-64 -18 -91 -13q-17 3 -11 19q8 17 24 16q25 -4 79 12q1 86 5 176q0 10 10 15.5t19 2t9 -15.5q-3 -86 -5 -168q59 14 101 22z" />
    <glyph glyph-name="u" unicode="u" 
d="M372 4q6 -8 -0.5 -17t-16.5 -10t-17 7q-57 79 -72 170q-25 -56 -55 -99q-62 -87 -122 -54q-45 25 -47 121q-2 81 19 136q6 15 24 13q19 -3 12 -20q-16 -42 -17 -104q-1 -86 27 -110q22 -20 50 5t51 74.5t37.5 87t20.5 58.5q2 8 12 12t18.5 0t6.5 -14q-7 -44 0 -90
t25 -87.5t44 -78.5z" />
    <glyph glyph-name="v" unicode="v" 
d="M303 253q7 16 26 13q18 -3 10 -19q-38 -81 -81 -198q-1 -4 -5 -19t-8 -25.5t-10.5 -22.5t-15.5 -18t-20 -6q-16 1 -28 28q-4 11 -29 86q-4 12 -16.5 54.5t-23.5 70t-25 50.5q-5 9 1.5 18t16.5 9.5t17 -7.5q8 -13 15.5 -30t11.5 -29.5t10.5 -34t10.5 -30.5
q4 -14 12.5 -38.5t11.5 -32.5q2 -7 6 -20.5t7.5 -24.5t7.5 -20q1 2 1 3q4 12 12 34q17 46 26 70q29 78 59 139z" />
    <glyph glyph-name="w" unicode="w" 
d="M361 280q34 -95 9 -186q-5 -20 -9.5 -33t-13 -31t-19.5 -31t-25 -20q-75 -38 -108 87q-11 -23 -19.5 -38t-21.5 -32.5t-28.5 -27.5t-32.5 -11q-19 -1 -33 16t-19 35.5t-8 38.5q-4 31 -6.5 94.5t-6.5 94.5q-2 16 17 22t21 -11q4 -29 9 -146q3 -50 16 -90q8 -23 17 -18
q20 13 35 36t30 56t22 45q6 10 19.5 10.5t15.5 -11.5q13 -78 38 -111q21 -28 43 8q34 53 38.5 119t-18.5 123q-3 10 5 17t18.5 6t14.5 -11z" />
    <glyph glyph-name="x" unicode="x" 
d="M317 -6q6 -9 -1 -17.5t-17 -9.5t-17 7q-34 53 -102 126q-58 -66 -97 -107q-8 -9 -18 -6.5t-12.5 10.5t5.5 18q39 43 98 109q-9 10 -50 45.5t-57 59.5q-6 9 0.5 17.5t16.5 9.5t17 -7q14 -20 59 -57q18 -15 40 -38q74 84 99 112q8 8 18 6t12.5 -10.5t-4.5 -18.5
q-24 -27 -101 -114q74 -78 111 -135z" />
    <glyph glyph-name="y" unicode="y" 
d="M292 226q2 -19 7.5 -55t8 -55.5t7 -55.5t5.5 -56t2.5 -56t-1.5 -56q-5 -78 -23 -138t-63 -98q-25 -20 -54.5 -32t-63.5 -10.5t-56 24.5q-17 18 -23.5 47.5t-6 50t3.5 55.5q0 6 1 9q1 16 19 19q17 2 19 -12v-4q0 -3 -1.5 -18t-2 -21.5t-1 -20t1 -22t3 -19.5t6 -19.5
t9.5 -16.5q22 -25 52 -19t57.5 25.5t40.5 41.5q50 81 45 238q-3 70 -20 191q-23 -48 -56 -88q-61 -75 -106 -48q-28 16 -39 56t-6.5 80t19.5 68q5 10 15 10.5t16 -7t1 -18.5q-16 -30 -11 -86q6 -63 26 -71q5 -2 9.5 -2t9 1.5t9.5 4.5t8.5 6.5t8 8.5t7.5 9l7.5 10t6.5 9
t5.5 9t4.5 7q41 62 56 122q3 12 19 14t18 -12z" />
    <glyph glyph-name="z" unicode="z" 
d="M351 33q17 1 17 -15q-1 -16 -17 -20h-3q-60 -3 -192 -20q-61 -8 -90 -10q-31 -3 -45 3q-46 20 61 109q54 45 129 95q5 4 15 10.5t16.5 11t15 11t14.5 12.5q3 2 8 6q6 5 5.5 7t-10.5 3q-22 2 -77 -4q-132 -14 -142 -15q-17 -2 -17 14q1 16 17 21h3q29 3 84 9t62 7
q53 6 78 3q40 -4 42 -28q1 -14 -10.5 -28.5t-19.5 -21t-25 -18.5q-15 -11 -53.5 -36.5t-59.5 -40.5t-50 -39t-50 -48q-4 -4 -7 -9l-1 -1q6 0 33 3q37 4 90 11q116 15 179 18z" />
    <glyph glyph-name="braceleft" unicode="{" horiz-adv-x="700" 
d="M397 14q11 6 19.5 0.5t8 -14t-10.5 -15.5q-15 -8 -24.5 -12t-23 -8t-26 -3t-25.5 6q-24 11 -37.5 41t-12.5 59q1 28 14 75.5t15 62.5q7 21 3.5 42.5t-23.5 32.5q-30 17 -41 28t0.5 24t24.5 5q6 -3 14 -6t17.5 -4.5t15.5 4.5t6 18q0 19 -12 44q-18 37 -21 53q-9 51 14 103
q29 63 61 79q44 21 57 -14q6 -15 -12 -25q-17 -9 -23 5q-3 11 -17 -5t-19 -27q-20 -36 -23 -57q-6 -41 9 -73q2 -4 6 -12.5t6.5 -14t5.5 -13.5t4 -14q5 -27 -5 -47t-30 -30q18 -14 22 -32q8 -33 -9 -94q-2 -6 -7 -23t-7 -24.5t-5.5 -24.5t-2.5 -24.5t2 -24.5q4 -20 14.5 -39
t27.5 -19q14 -1 50 17z" />
    <glyph glyph-name="bar" unicode="|" horiz-adv-x="700" 
d="M367 672q4 -108 1.5 -256t-6 -256.5t-0.5 -256.5q1 -10 -8.5 -15.5t-19.5 -2t-10 15.5q-4 122 3 378.5t1 389.5q0 10 9.5 15.5t19 2t10.5 -14.5z" />
    <glyph glyph-name="braceright" unicode="}" horiz-adv-x="700" 
d="M385 157q5 -13 26.5 -49t23.5 -58q2 -25 -10.5 -47t-37.5 -27q-45 -8 -87 26q-13 11 3 24q14 13 26 3q9 -8 21.5 -14.5t27 -6t18.5 15.5q5 18 -14 51q-32 56 -37 80q-18 78 36 142q-21 10 -26 27q-1 7 -1.5 14t1.5 15t3.5 13t6 14l6 12t7.5 13q34 62 18 128q-7 29 -24 43
q-28 22 -34 13q-10 -13 -27 -6.5t-5 21.5q21 25 47 22t49 -24.5t29 -46.5q19 -77 -1 -124q-4 -10 -16 -31.5t-16 -33.5q-7 -19 -2.5 -28.5t24.5 -13.5q11 -2 13 -12t-6 -17q-68 -62 -42 -138z" />
    <glyph glyph-name="asciitilde" unicode="~" horiz-adv-x="700" 
d="M527 329q16 13 29 0q11 -11 -3 -22q-107 -85 -192 -27q-6 4 -15.5 11.5t-15.5 11.5t-16 10.5t-16.5 8t-18 3.5t-20.5 -2q-72 -17 -79 -55q-3 -16 -23 -18q-17 -1 -16 14v2q8 42 53.5 69.5t91.5 25.5q14 -1 28.5 -6.5t21.5 -9.5t24.5 -17t21.5 -15q66 -46 145 16z" />
  </font>
</defs>
</svg>
